<svg width="103" height="51" viewBox="0 0 103 51" fill="none" xmlns="http://www.w3.org/2000/svg">
<g clip-path="url(#clip0_1281_205)">
<path d="M98.5788 21.5141L102.721 23.7713L98.5788 26.0466L96.3125 30.1803L94.0462 26.0466L89.9035 23.7713L94.0462 21.5141L96.3125 17.3624L98.5788 21.5141Z" fill="#FF5D17" stroke="white" stroke-width="0.748118" stroke-miterlimit="10"/>
</g>
<g clip-path="url(#clip1_1281_205)">
<path d="M8.81117 21.5141L12.9539 23.7713L8.81117 26.0466L6.54492 30.1803L4.27867 26.0466L0.135959 23.7713L4.27867 21.5141L6.54492 17.3624L8.81117 21.5141Z" fill="#FF5D17" stroke="white" stroke-width="0.748118" stroke-miterlimit="10"/>
</g>
<circle cx="51.4286" cy="25.204" r="25.204" fill="#3177F2"/>
<path d="M43.3809 21.1307H56.1227V16.4935C56.1227 13.9365 54.0169 11.8564 51.4283 11.8564C48.8398 11.8564 46.734 13.9365 46.734 16.4936V19.1434C46.734 19.5091 46.4335 19.8058 46.0633 19.8058H43.3809C43.0107 19.8058 42.7102 19.5091 42.7102 19.1434V16.4936C42.7102 11.7452 46.6213 7.88178 51.4283 7.88178C56.2354 7.88178 60.1465 11.7452 60.1465 16.4936V21.1983C61.6755 21.5056 62.829 22.8451 62.829 24.4429V36.3669C62.8289 38.1926 61.3254 39.6791 59.4758 39.6791H43.3809C41.5313 39.6791 40.0278 38.1926 40.0278 36.3669V24.4429C40.0278 22.6172 41.5313 21.1307 43.3809 21.1307ZM49.9409 31.3721L49.4231 34.948C49.395 35.1387 49.4526 35.3308 49.5801 35.4753C49.7075 35.6197 49.8926 35.7045 50.0871 35.7045H52.7696C52.964 35.7045 53.1491 35.621 53.2766 35.4767C53.404 35.3323 53.4617 35.1388 53.4335 34.9493L52.9157 31.3734C54.0371 30.8196 54.7814 29.6763 54.7814 28.4176C54.7814 26.5919 53.2779 25.1054 51.4283 25.1054C49.5788 25.1054 48.0753 26.5919 48.0753 28.4176C48.0753 29.6762 48.8196 30.8196 49.9409 31.3721Z" fill="white"/>
<defs>
<clipPath id="clip0_1281_205">
<rect width="9.25594" height="9.25594" fill="white" transform="translate(96.3125 17.2355) rotate(45)"/>
</clipPath>
<clipPath id="clip1_1281_205">
<rect width="9.25594" height="9.25594" fill="white" transform="translate(6.54492 17.2355) rotate(45)"/>
</clipPath>
</defs>
</svg>
