<svg width="103" height="51" viewBox="0 0 103 51" fill="none" xmlns="http://www.w3.org/2000/svg">
<g clip-path="url(#clip0_1281_142)">
<path d="M98.5788 22.9377L102.721 25.1949L98.5788 27.4702L96.3125 31.6039L94.0462 27.4702L89.9035 25.1949L94.0462 22.9377L96.3125 18.7859L98.5788 22.9377Z" fill="#FF5D17" stroke="white" stroke-width="0.748118" stroke-miterlimit="10"/>
</g>
<g clip-path="url(#clip1_1281_142)">
<path d="M8.81117 22.9377L12.9539 25.1949L8.81117 27.4702L6.54492 31.6039L4.27867 27.4702L0.135959 25.1949L4.27867 22.9377L6.54492 18.7859L8.81117 22.9377Z" fill="#FF5D17" stroke="white" stroke-width="0.748118" stroke-miterlimit="10"/>
</g>
<circle cx="51.4286" cy="25.204" r="25.204" fill="#3177F2"/>
<path d="M68.9068 16.1587L33.9512 30.2638" stroke="white" stroke-width="2.86139" stroke-linecap="round"/>
<path fill-rule="evenodd" clip-rule="evenodd" d="M39.4846 22.3288C39.4846 15.899 44.7157 10.668 51.1455 10.668C56.7805 10.668 61.4947 14.6857 62.5742 20.007L57.0118 22.2515C56.9702 19.052 54.3546 16.462 51.1455 16.462C47.9105 16.462 45.2787 19.0938 45.2787 22.3288C45.2787 23.8804 45.8841 25.2932 46.871 26.3434L41.0784 28.6809C40.1176 26.4859 39.4846 24.2941 39.4846 22.3288ZM41.8114 30.2364C44.9142 36.4032 50.0553 42.1735 50.3643 42.5176C50.7816 42.9824 51.5102 42.9816 51.9267 42.5176C52.371 42.0228 62.8064 30.3084 62.8064 22.3288C62.8064 22.1415 62.8019 21.9552 62.7931 21.77L56.6961 24.2302C55.9045 26.5349 53.7153 28.1957 51.1455 28.1957C50.1824 28.1957 49.2728 27.9625 48.4702 27.5495L41.8114 30.2364Z" fill="white"/>
<defs>
<clipPath id="clip0_1281_142">
<rect width="9.25594" height="9.25594" fill="white" transform="translate(96.3125 18.6591) rotate(45)"/>
</clipPath>
<clipPath id="clip1_1281_142">
<rect width="9.25594" height="9.25594" fill="white" transform="translate(6.54492 18.6591) rotate(45)"/>
</clipPath>
</defs>
</svg>
