<svg width="21" height="20" viewBox="0 0 21 20" fill="none" xmlns="http://www.w3.org/2000/svg">
<path d="M14.69 0H6.31C2.67 0 0.5 2.17 0.5 5.81V14.18C0.5 17.83 2.67 20 6.31 20H14.68C18.32 20 20.49 17.83 20.49 14.19V5.81C20.5 2.17 18.33 0 14.69 0ZM14.7 16.25C13.57 16.25 12.65 15.33 12.65 14.2C12.65 13.54 12.97 12.96 13.46 12.58C13.04 11.48 11.99 10.72 10.81 10.76L8.75 10.77H8.74C8.13 10.77 7.55 10.59 7.06 10.28V12.3C7.82 12.6 8.36 13.34 8.36 14.2C8.36 15.33 7.44 16.25 6.31 16.25C5.18 16.25 4.26 15.33 4.26 14.2C4.26 13.33 4.8 12.6 5.56 12.3V7.95C4.8 7.6 4.26 6.84 4.26 5.95C4.26 4.74 5.25 3.75 6.46 3.75C7.67 3.75 8.66 4.74 8.66 5.95C8.66 6.93 8.01 7.75 7.12 8.04C7.32 8.77 7.98 9.28 8.74 9.28C8.74 9.28 8.74 9.28 8.75 9.28L10.81 9.27C10.82 9.27 10.82 9.27 10.83 9.27C12.67 9.27 14.32 10.44 14.92 12.18C15.95 12.29 16.76 13.15 16.76 14.21C16.75 15.33 15.83 16.25 14.7 16.25Z" fill="#3177F2"/>
</svg>
