<svg width="103" height="51" viewBox="0 0 103 51" fill="none" xmlns="http://www.w3.org/2000/svg">
<circle cx="51.4286" cy="25.204" r="25.204" fill="#3177F2"/>
<g clip-path="url(#clip0_1281_107)">
<path d="M56.7958 24.483L56.4725 24.6452L55.822 25.9439C55.5715 26.4445 55.0718 26.7522 54.5147 26.7522C53.9575 26.7522 53.4578 26.4432 53.2073 25.9439L52.5569 24.6452L51.2547 23.9927C50.7563 23.7449 50.4483 23.2456 50.4483 22.6863C50.4483 22.127 50.7575 21.6303 51.2547 21.3825L52.5569 20.73L52.7192 20.4069C52.3051 20.306 51.8732 20.2524 51.4285 20.2524C48.3819 20.2524 45.9052 22.7285 45.9052 25.7715C45.9052 28.8145 48.3831 31.2906 51.4285 31.2906C54.4738 31.2906 56.9504 28.812 56.9504 25.7715C56.9504 25.3284 56.8993 24.8942 56.7958 24.4818V24.483ZM56.7958 24.483L56.4725 24.6452L55.822 25.9439C55.5715 26.4445 55.0718 26.7522 54.5147 26.7522C53.9575 26.7522 53.4578 26.4432 53.2073 25.9439L52.5569 24.6452L51.2547 23.9927C50.7563 23.7449 50.4483 23.2456 50.4483 22.6863C50.4483 22.127 50.7575 21.6303 51.2547 21.3825L52.5569 20.73L52.7192 20.4069C52.3051 20.306 51.8732 20.2524 51.4285 20.2524C48.3819 20.2524 45.9052 22.7285 45.9052 25.7715C45.9052 28.8145 48.3831 31.2906 51.4285 31.2906C54.4738 31.2906 56.9504 28.812 56.9504 25.7715C56.9504 25.3284 56.8993 24.8942 56.7958 24.4818V24.483ZM57.7747 21.3825L56.4725 20.73L55.822 19.4288C55.5715 18.9307 55.0718 18.6217 54.5147 18.6217C54.1032 18.6217 53.7223 18.7903 53.4527 19.0802C53.3543 19.1836 53.2738 19.2985 53.2073 19.4288L52.7192 20.4069C52.3051 20.306 51.8732 20.2524 51.4285 20.2524C48.3819 20.2524 45.9052 22.7285 45.9052 25.7715C45.9052 28.8145 48.3831 31.2906 51.4285 31.2906C54.4738 31.2906 56.9504 28.812 56.9504 25.7715C56.9504 25.3284 56.8993 24.8942 56.7958 24.4818L57.7747 23.9914C57.905 23.925 58.0226 23.8445 58.1236 23.7488C58.4124 23.4793 58.5823 23.0988 58.5823 22.685C58.5823 22.1283 58.2731 21.629 57.776 21.3813L57.7747 21.3825ZM57.3351 23.1154L56.4789 23.5445L55.8833 23.8407C55.7926 23.8867 55.7172 23.9633 55.6699 24.0565L54.9441 25.5072C54.8559 25.6834 54.6846 25.7715 54.5147 25.7715C54.3447 25.7715 54.1735 25.6834 54.0853 25.5072L53.3594 24.0565C53.3121 23.9633 53.2367 23.888 53.146 23.8407L51.6943 23.1154C51.3415 22.9392 51.3415 22.436 51.6943 22.2573L53.146 21.5345C53.2367 21.4872 53.3121 21.4119 53.3594 21.3187L53.6559 20.7236L54.0853 19.868C54.1735 19.6918 54.346 19.6037 54.5147 19.6037C54.6834 19.6037 54.8559 19.6918 54.9441 19.868L55.6699 21.3187C55.7172 21.4119 55.7926 21.4872 55.8833 21.5345L57.3351 22.2573C57.6878 22.436 57.6878 22.9392 57.3351 23.1154ZM56.7958 24.483L56.4725 24.6452L55.822 25.9439C55.5715 26.4445 55.0718 26.7522 54.5147 26.7522C53.9575 26.7522 53.4578 26.4432 53.2073 25.9439L52.5569 24.6452L51.2547 23.9927C50.7563 23.7449 50.4483 23.2456 50.4483 22.6863C50.4483 22.127 50.7575 21.6303 51.2547 21.3825L52.5569 20.73L52.7192 20.4069C52.3051 20.306 51.8732 20.2524 51.4285 20.2524C48.3819 20.2524 45.9052 22.7285 45.9052 25.7715C45.9052 28.8145 48.3831 31.2906 51.4285 31.2906C54.4738 31.2906 56.9504 28.812 56.9504 25.7715C56.9504 25.3284 56.8993 24.8942 56.7958 24.4818V24.483ZM56.7958 24.483L56.4725 24.6452L55.822 25.9439C55.5715 26.4445 55.0718 26.7522 54.5147 26.7522C53.9575 26.7522 53.4578 26.4432 53.2073 25.9439L52.5569 24.6452L51.2547 23.9927C50.7563 23.7449 50.4483 23.2456 50.4483 22.6863C50.4483 22.127 50.7575 21.6303 51.2547 21.3825L52.5569 20.73L52.7192 20.4069C52.3051 20.306 51.8732 20.2524 51.4285 20.2524C48.3819 20.2524 45.9052 22.7285 45.9052 25.7715C45.9052 28.8145 48.3831 31.2906 51.4285 31.2906C54.4738 31.2906 56.9504 28.812 56.9504 25.7715C56.9504 25.3284 56.8993 24.8942 56.7958 24.4818V24.483Z" fill="white"/>
<path d="M51.392 15.9682C43.5596 15.981 36.5718 19.9409 33.8932 25.7728C36.3584 31.1361 42.4631 34.9096 49.5083 35.4983H49.5237C50.1511 35.5493 50.7888 35.5761 51.4291 35.5761H51.4661C51.5173 35.5761 51.5645 35.5761 51.6157 35.5736H51.6502C59.4085 35.5021 66.3081 31.5537 68.9649 25.7715C66.2736 19.9141 59.2437 15.9554 51.392 15.9682ZM58.4219 25.7728C58.4219 29.6255 55.2846 32.763 51.4291 32.763C47.5735 32.763 44.4337 29.6255 44.4337 25.7728C44.4337 21.9202 47.571 18.7827 51.4291 18.7827C52.1332 18.7827 52.8131 18.8887 53.4521 19.0815C53.7217 18.7916 54.1025 18.623 54.514 18.623C55.0712 18.623 55.5709 18.9321 55.8213 19.4301L56.4718 20.7313L57.774 21.3839C58.2724 21.6316 58.5804 22.1309 58.5804 22.6877C58.5804 23.1014 58.4117 23.4819 58.1216 23.7514C58.3159 24.3911 58.4207 25.0705 58.4207 25.7728H58.4219Z" fill="white"/>
<path d="M57.7742 21.3825L56.472 20.73L55.8215 19.4288C55.5711 18.9307 55.0714 18.6217 54.5142 18.6217C54.1027 18.6217 53.7219 18.7903 53.4522 19.0802C53.3538 19.1836 53.2733 19.2985 53.2069 19.4288L52.7187 20.4069L52.5564 20.73L51.2542 21.3825C50.7558 21.6303 50.4478 22.1296 50.4478 22.6863C50.4478 23.2431 50.7571 23.7449 51.2542 23.9927L52.5564 24.6452L53.2069 25.9439C53.4574 26.4445 53.957 26.7522 54.5142 26.7522C55.0714 26.7522 55.5711 26.4432 55.8215 25.9439L56.472 24.6452L56.7953 24.483L57.7742 23.9927C57.9046 23.9263 58.0221 23.8458 58.1231 23.75C58.4119 23.4806 58.5819 23.1001 58.5819 22.6863C58.5819 22.1296 58.2726 21.6303 57.7755 21.3825H57.7742ZM57.3346 23.1154L56.4784 23.5445L55.8829 23.8407C55.7921 23.8867 55.7167 23.9633 55.6695 24.0565L54.9436 25.5072C54.8554 25.6834 54.6842 25.7715 54.5142 25.7715C54.3442 25.7715 54.173 25.6834 54.0848 25.5072L53.359 24.0565C53.3117 23.9633 53.2363 23.888 53.1455 23.8407L51.6938 23.1154C51.3411 22.9392 51.3411 22.436 51.6938 22.2573L53.1455 21.5345C53.2363 21.4872 53.3117 21.4119 53.359 21.3187L53.6554 20.7236L54.0848 19.868C54.173 19.6918 54.3455 19.6037 54.5142 19.6037C54.6829 19.6037 54.8554 19.6918 54.9436 19.868L55.6695 21.3187C55.7167 21.4119 55.7921 21.4872 55.8829 21.5345L57.3346 22.2573C57.6873 22.436 57.6873 22.9392 57.3346 23.1154Z" fill="white"/>
</g>
<g clip-path="url(#clip1_1281_107)">
<path d="M98.5788 20.4207L102.721 22.6779L98.5788 24.9532L96.3125 29.0868L94.0462 24.9532L89.9035 22.6779L94.0462 20.4207L96.3125 16.2689L98.5788 20.4207Z" fill="#FF5D17" stroke="white" stroke-width="0.748118" stroke-miterlimit="10"/>
</g>
<g clip-path="url(#clip2_1281_107)">
<path d="M8.81117 20.4207L12.9539 22.6779L8.81117 24.9532L6.54492 29.0868L4.27867 24.9532L0.135959 22.6779L4.27867 20.4207L6.54492 16.2689L8.81117 20.4207Z" fill="#FF5D17" stroke="white" stroke-width="0.748118" stroke-miterlimit="10"/>
</g>
<defs>
<clipPath id="clip0_1281_107">
<rect width="35.0704" height="22.3853" fill="white" transform="translate(33.8932 15.9682)"/>
</clipPath>
<clipPath id="clip1_1281_107">
<rect width="9.25594" height="9.25594" fill="white" transform="translate(96.3125 16.142) rotate(45)"/>
</clipPath>
<clipPath id="clip2_1281_107">
<rect width="9.25594" height="9.25594" fill="white" transform="translate(6.54492 16.142) rotate(45)"/>
</clipPath>
</defs>
</svg>
